<svg width="4336" height="2475" xmlns="http://www.w3.org/2000/svg" xmlns:xlink="http://www.w3.org/1999/xlink" xml:space="preserve" overflow="hidden"><g transform="translate(-64 0)"><g><rect x="239" y="1565" width="1203" height="685" fill="#AEAEAE" fill-opacity="1"/><rect x="239" y="783" width="2024" height="684" fill="#AEAEAE" fill-opacity="1"/><path d="M343.5 335.001C343.5 309.871 363.871 289.5 389.001 289.5L570.999 289.5C596.128 289.5 616.5 309.871 616.5 335.001L616.5 629.999C616.5 655.129 596.128 675.5 570.999 675.5L389.001 675.5C363.871 675.5 343.5 655.129 343.5 629.999Z" stroke="#042433" stroke-width="6.875" stroke-linecap="butt" stroke-linejoin="miter" stroke-miterlimit="8" stroke-opacity="1" fill="#D9D9D9" fill-rule="evenodd" fill-opacity="1"/><path d="M392.5 356.5 566.419 356.5" stroke="#000000" stroke-width="6.875" stroke-linecap="butt" stroke-linejoin="miter" stroke-miterlimit="8" stroke-opacity="1" fill="none" fill-rule="evenodd"/><path d="M392.5 407.5 566.419 407.5" stroke="#000000" stroke-width="6.875" stroke-linecap="butt" stroke-linejoin="miter" stroke-miterlimit="8" stroke-opacity="1" fill="none" fill-rule="evenodd"/><path d="M392.5 459.5 566.419 459.5" stroke="#000000" stroke-width="6.875" stroke-linecap="butt" stroke-linejoin="miter" stroke-miterlimit="8" stroke-opacity="1" fill="none" fill-rule="evenodd"/><text fill="#000000" fill-opacity="1" font-family="Arial,Arial_MSFontService,sans-serif" font-style="normal" font-variant="normal" font-weight="700" font-stretch="normal" font-size="55" text-anchor="start" direction="ltr" writing-mode="lr-tb" unicode-bidi="normal" text-decoration="none" transform="matrix(1 0 0 1 459.318 551)">A</text><path d="M1451.5 461.875 1798.77 461.875 1798.77 503.125 1451.5 503.125ZM1778.15 420.625 1901.9 482.5 1778.15 544.375Z" fill="#000000" fill-rule="nonzero" fill-opacity="1"/><path d="M1133.5 334.834C1133.5 309.797 1153.8 289.5 1178.83 289.5L1360.17 289.5C1385.2 289.5 1405.5 309.797 1405.5 334.834L1405.5 630.166C1405.5 655.203 1385.2 675.5 1360.17 675.5L1178.83 675.5C1153.8 675.5 1133.5 655.203 1133.5 630.166Z" stroke="#042433" stroke-width="6.875" stroke-linecap="butt" stroke-linejoin="miter" stroke-miterlimit="8" stroke-opacity="1" fill="#7F7F7F" fill-rule="evenodd" fill-opacity="1"/><path d="M1182.5 356.5 1356.42 356.5" stroke="#000000" stroke-width="6.875" stroke-linecap="butt" stroke-linejoin="miter" stroke-miterlimit="8" stroke-opacity="1" fill="#83CBEB" fill-rule="evenodd" fill-opacity="1"/><path d="M1182.5 407.5 1356.42 407.5" stroke="#000000" stroke-width="6.875" stroke-linecap="butt" stroke-linejoin="miter" stroke-miterlimit="8" stroke-opacity="1" fill="#83CBEB" fill-rule="evenodd" fill-opacity="1"/><path d="M1182.5 459.5 1356.42 459.5" stroke="#000000" stroke-width="6.875" stroke-linecap="butt" stroke-linejoin="miter" stroke-miterlimit="8" stroke-opacity="1" fill="#83CBEB" fill-rule="evenodd" fill-opacity="1"/><rect x="1132" y="482" width="260" height="100" fill="#7F7F7F" fill-opacity="1"/><text fill="#000000" fill-opacity="1" font-family="Arial,Arial_MSFontService,sans-serif" font-style="normal" font-variant="normal" font-weight="700" font-stretch="normal" font-size="55" text-anchor="start" direction="ltr" writing-mode="lr-tb" unicode-bidi="normal" text-decoration="none" transform="matrix(1 0 0 1 1242.43 551)">B</text><path d="M1927.5 335.001C1927.5 309.871 1947.87 289.5 1973 289.5L2155 289.5C2180.13 289.5 2200.5 309.871 2200.5 335.001L2200.5 629.999C2200.5 655.129 2180.13 675.5 2155 675.5L1973 675.5C1947.87 675.5 1927.5 655.129 1927.5 629.999Z" stroke="#042433" stroke-width="6.875" stroke-linecap="butt" stroke-linejoin="miter" stroke-miterlimit="8" stroke-opacity="1" fill="#61CBF4" fill-rule="evenodd" fill-opacity="1"/><path d="M1977.5 356.5 2151.42 356.5" stroke="#000000" stroke-width="6.875" stroke-linecap="butt" stroke-linejoin="miter" stroke-miterlimit="8" stroke-opacity="1" fill="#61CBF4" fill-rule="evenodd" fill-opacity="1"/><path d="M1977.5 407.5 2151.42 407.5" stroke="#000000" stroke-width="6.875" stroke-linecap="butt" stroke-linejoin="miter" stroke-miterlimit="8" stroke-opacity="1" fill="#61CBF4" fill-rule="evenodd" fill-opacity="1"/><path d="M1977.5 459.5 2151.42 459.5" stroke="#000000" stroke-width="6.875" stroke-linecap="butt" stroke-linejoin="miter" stroke-miterlimit="8" stroke-opacity="1" fill="#61CBF4" fill-rule="evenodd" fill-opacity="1"/><rect x="1934" y="482" width="260" height="100" fill="#61CBF4" fill-opacity="1"/><text fill="#000000" fill-opacity="1" font-family="Arial,Arial_MSFontService,sans-serif" font-style="normal" font-variant="normal" font-weight="700" font-stretch="normal" font-size="55" text-anchor="start" direction="ltr" writing-mode="lr-tb" unicode-bidi="normal" text-decoration="none" transform="matrix(1 0 0 1 2044.34 551)">C</text><path d="M647.5 457.875 994.774 457.875 994.774 499.125 647.5 499.125ZM974.149 416.625 1097.9 478.5 974.149 540.375Z" fill="#000000" fill-rule="nonzero" fill-opacity="1"/><path d="M334.5 1087C334.5 1061.87 354.871 1041.5 380.001 1041.5L561.999 1041.5C587.129 1041.5 607.5 1061.87 607.5 1087L607.5 1382C607.5 1407.13 587.129 1427.5 561.999 1427.5L380.001 1427.5C354.871 1427.5 334.5 1407.13 334.5 1382Z" stroke="#042433" stroke-width="6.875" stroke-linecap="butt" stroke-linejoin="miter" stroke-miterlimit="8" stroke-opacity="1" fill="#D9D9D9" fill-rule="evenodd" fill-opacity="1"/><path d="M384.5 1108.5 558.419 1108.5" stroke="#000000" stroke-width="6.875" stroke-linecap="butt" stroke-linejoin="miter" stroke-miterlimit="8" stroke-opacity="1" fill="none" fill-rule="evenodd"/><path d="M384.5 1159.5 558.419 1159.5" stroke="#000000" stroke-width="6.875" stroke-linecap="butt" stroke-linejoin="miter" stroke-miterlimit="8" stroke-opacity="1" fill="none" fill-rule="evenodd"/><path d="M384.5 1211.5 558.419 1211.5" stroke="#000000" stroke-width="6.875" stroke-linecap="butt" stroke-linejoin="miter" stroke-miterlimit="8" stroke-opacity="1" fill="none" fill-rule="evenodd"/><text fill="#000000" fill-opacity="1" font-family="Arial,Arial_MSFontService,sans-serif" font-style="normal" font-variant="normal" font-weight="700" font-stretch="normal" font-size="55" text-anchor="start" direction="ltr" writing-mode="lr-tb" unicode-bidi="normal" text-decoration="none" transform="matrix(1 0 0 1 450.826 1303)">A</text><path d="M1442.5 1213.87 1483.75 1213.87 1483.75 1255.12 1442.5 1255.12ZM1525 1213.88 1566.25 1213.88 1566.25 1255.12 1525 1255.12ZM1607.5 1213.88 1648.75 1213.88 1648.75 1255.12 1607.5 1255.12ZM1690 1213.88 1731.25 1213.88 1731.25 1255.13 1690 1255.13ZM1772.5 1213.88 1789.77 1213.88 1789.77 1255.13 1772.5 1255.13ZM1769.15 1172.63 1892.9 1234.5 1769.15 1296.38Z" fill="#000000" fill-rule="nonzero" fill-opacity="1"/><path d="M1124.5 1087C1124.5 1061.87 1144.87 1041.5 1170 1041.5L1352 1041.5C1377.13 1041.5 1397.5 1061.87 1397.5 1087L1397.5 1382C1397.5 1407.13 1377.13 1427.5 1352 1427.5L1170 1427.5C1144.87 1427.5 1124.5 1407.13 1124.5 1382Z" stroke="#042433" stroke-width="6.875" stroke-linecap="butt" stroke-linejoin="miter" stroke-miterlimit="8" stroke-opacity="1" fill="#7F7F7F" fill-rule="evenodd" fill-opacity="1"/><path d="M1174.5 1108.5 1348.42 1108.5" stroke="#000000" stroke-width="6.875" stroke-linecap="butt" stroke-linejoin="miter" stroke-miterlimit="8" stroke-opacity="1" fill="#7F7F7F" fill-rule="evenodd" fill-opacity="1"/><path d="M1174.5 1159.5 1348.42 1159.5" stroke="#000000" stroke-width="6.875" stroke-linecap="butt" stroke-linejoin="miter" stroke-miterlimit="8" stroke-opacity="1" fill="#7F7F7F" fill-rule="evenodd" fill-opacity="1"/><path d="M1174.5 1211.5 1348.42 1211.5" stroke="#000000" stroke-width="6.875" stroke-linecap="butt" stroke-linejoin="miter" stroke-miterlimit="8" stroke-opacity="1" fill="#7F7F7F" fill-rule="evenodd" fill-opacity="1"/><rect x="1128" y="1234" width="259" height="100" fill="#7F7F7F" fill-opacity="1"/><text fill="#000000" fill-opacity="1" font-family="Arial,Arial_MSFontService,sans-serif" font-style="normal" font-variant="normal" font-weight="700" font-stretch="normal" font-size="55" text-anchor="start" direction="ltr" writing-mode="lr-tb" unicode-bidi="normal" text-decoration="none" transform="matrix(1 0 0 1 1237.73 1303)">B</text><path d="M1919.5 1087C1919.5 1061.87 1939.87 1041.5 1965 1041.5L2147 1041.5C2172.13 1041.5 2192.5 1061.87 2192.5 1087L2192.5 1382C2192.5 1407.13 2172.13 1427.5 2147 1427.5L1965 1427.5C1939.87 1427.5 1919.5 1407.13 1919.5 1382Z" stroke="#042433" stroke-width="6.875" stroke-linecap="butt" stroke-linejoin="miter" stroke-miterlimit="8" stroke-opacity="1" fill="#61CBF4" fill-rule="evenodd" fill-opacity="1"/><path d="M1968.5 1108.5 2142.42 1108.5" stroke="#000000" stroke-width="6.875" stroke-linecap="butt" stroke-linejoin="miter" stroke-miterlimit="8" stroke-opacity="1" fill="#61CBF4" fill-rule="evenodd" fill-opacity="1"/><path d="M1968.5 1159.5 2142.42 1159.5" stroke="#000000" stroke-width="6.875" stroke-linecap="butt" stroke-linejoin="miter" stroke-miterlimit="8" stroke-opacity="1" fill="#61CBF4" fill-rule="evenodd" fill-opacity="1"/><path d="M1968.5 1211.5 2142.42 1211.5" stroke="#000000" stroke-width="6.875" stroke-linecap="butt" stroke-linejoin="miter" stroke-miterlimit="8" stroke-opacity="1" fill="#61CBF4" fill-rule="evenodd" fill-opacity="1"/><rect x="1926" y="1234" width="260" height="100" fill="#61CBF4" fill-opacity="1"/><text fill="#000000" fill-opacity="1" font-family="Arial,Arial_MSFontService,sans-serif" font-style="normal" font-variant="normal" font-weight="700" font-stretch="normal" font-size="55" text-anchor="start" direction="ltr" writing-mode="lr-tb" unicode-bidi="normal" text-decoration="none" transform="matrix(1 0 0 1 2035.85 1303)">C</text><path d="M639.5 1209.88 680.75 1209.88 680.75 1251.13 639.5 1251.13ZM722 1209.88 763.25 1209.88 763.25 1251.13 722 1251.13ZM804.5 1209.88 845.75 1209.88 845.75 1251.13 804.5 1251.13ZM887 1209.88 928.25 1209.88 928.25 1251.13 887 1251.13ZM969.5 1209.88 986.774 1209.88 986.774 1251.13 969.5 1251.13ZM966.149 1168.63 1089.9 1230.5 966.149 1292.38Z" fill="#000000" fill-rule="nonzero" fill-opacity="1"/><path d="M2263.5 1213.87 2610.77 1213.88 2610.77 1255.13 2263.5 1255.12ZM2590.15 1172.63 2713.9 1234.5 2590.15 1296.38Z" fill="#000000" fill-rule="nonzero" fill-opacity="1"/><path d="M2739.5 1087C2739.5 1061.87 2759.87 1041.5 2785 1041.5L2967 1041.5C2992.13 1041.5 3012.5 1061.87 3012.5 1087L3012.5 1382C3012.5 1407.13 2992.13 1427.5 2967 1427.5L2785 1427.5C2759.87 1427.5 2739.5 1407.13 2739.5 1382Z" stroke="#042433" stroke-width="6.875" stroke-linecap="butt" stroke-linejoin="miter" stroke-miterlimit="8" stroke-opacity="1" fill="#84E291" fill-rule="evenodd" fill-opacity="1"/><path d="M2789.5 1108.5 2963.42 1108.5" stroke="#000000" stroke-width="6.875" stroke-linecap="butt" stroke-linejoin="miter" stroke-miterlimit="8" stroke-opacity="1" fill="#84E291" fill-rule="evenodd" fill-opacity="1"/><path d="M2789.5 1159.5 2963.42 1159.5" stroke="#000000" stroke-width="6.875" stroke-linecap="butt" stroke-linejoin="miter" stroke-miterlimit="8" stroke-opacity="1" fill="#84E291" fill-rule="evenodd" fill-opacity="1"/><path d="M2789.5 1211.5 2963.42 1211.5" stroke="#000000" stroke-width="6.875" stroke-linecap="butt" stroke-linejoin="miter" stroke-miterlimit="8" stroke-opacity="1" fill="#84E291" fill-rule="evenodd" fill-opacity="1"/><rect x="2746" y="1234" width="260" height="100" fill="#84E291" fill-opacity="1"/><text fill="#000000" fill-opacity="1" font-family="Arial,Arial_MSFontService,sans-serif" font-style="normal" font-variant="normal" font-weight="700" font-stretch="normal" font-size="55" text-anchor="start" direction="ltr" writing-mode="lr-tb" unicode-bidi="normal" text-decoration="none" transform="matrix(1 0 0 1 2856.3 1303)">D</text><path d="M343.5 1846C343.5 1820.87 363.871 1800.5 389.001 1800.5L570.999 1800.5C596.128 1800.5 616.5 1820.87 616.5 1846L616.5 2141C616.5 2166.13 596.128 2186.5 570.999 2186.5L389.001 2186.5C363.871 2186.5 343.5 2166.13 343.5 2141Z" stroke="#042433" stroke-width="6.875" stroke-linecap="butt" stroke-linejoin="miter" stroke-miterlimit="8" stroke-opacity="1" fill="#D9D9D9" fill-rule="evenodd" fill-opacity="1"/><path d="M392.5 1867.5 566.419 1867.5" stroke="#000000" stroke-width="6.875" stroke-linecap="butt" stroke-linejoin="miter" stroke-miterlimit="8" stroke-opacity="1" fill="none" fill-rule="evenodd"/><path d="M392.5 1919.5 566.419 1919.5" stroke="#000000" stroke-width="6.875" stroke-linecap="butt" stroke-linejoin="miter" stroke-miterlimit="8" stroke-opacity="1" fill="none" fill-rule="evenodd"/><path d="M392.5 1971.5 566.419 1971.5" stroke="#000000" stroke-width="6.875" stroke-linecap="butt" stroke-linejoin="miter" stroke-miterlimit="8" stroke-opacity="1" fill="none" fill-rule="evenodd"/><text fill="#000000" fill-opacity="1" font-family="Arial,Arial_MSFontService,sans-serif" font-style="normal" font-variant="normal" font-weight="700" font-stretch="normal" font-size="55" text-anchor="start" direction="ltr" writing-mode="lr-tb" unicode-bidi="normal" text-decoration="none" transform="matrix(1 0 0 1 459.318 2063)">A</text><path d="M1451.5 1972.87 1798.77 1972.88 1798.77 2014.13 1451.5 2014.12ZM1778.15 1931.63 1901.9 1993.5 1778.15 2055.38Z" fill="#000000" fill-rule="nonzero" fill-opacity="1"/><path d="M1133.5 1845.83C1133.5 1820.8 1153.8 1800.5 1178.83 1800.5L1360.17 1800.5C1385.2 1800.5 1405.5 1820.8 1405.5 1845.83L1405.5 2141.17C1405.5 2166.2 1385.2 2186.5 1360.17 2186.5L1178.83 2186.5C1153.8 2186.5 1133.5 2166.2 1133.5 2141.17Z" stroke="#042433" stroke-width="6.875" stroke-linecap="butt" stroke-linejoin="miter" stroke-miterlimit="8" stroke-opacity="1" fill="#7F7F7F" fill-rule="evenodd" fill-opacity="1"/><path d="M1182.5 1867.5 1356.42 1867.5" stroke="#000000" stroke-width="6.875" stroke-linecap="butt" stroke-linejoin="miter" stroke-miterlimit="8" stroke-opacity="1" fill="#7F7F7F" fill-rule="evenodd" fill-opacity="1"/><path d="M1182.5 1919.5 1356.42 1919.5" stroke="#000000" stroke-width="6.875" stroke-linecap="butt" stroke-linejoin="miter" stroke-miterlimit="8" stroke-opacity="1" fill="#7F7F7F" fill-rule="evenodd" fill-opacity="1"/><path d="M1182.5 1971.5 1356.42 1971.5" stroke="#000000" stroke-width="6.875" stroke-linecap="butt" stroke-linejoin="miter" stroke-miterlimit="8" stroke-opacity="1" fill="#7F7F7F" fill-rule="evenodd" fill-opacity="1"/><rect x="1136" y="1993" width="260" height="100" fill="#7F7F7F" fill-opacity="1"/><text fill="#000000" fill-opacity="1" font-family="Arial,Arial_MSFontService,sans-serif" font-style="normal" font-variant="normal" font-weight="700" font-stretch="normal" font-size="55" text-anchor="start" direction="ltr" writing-mode="lr-tb" unicode-bidi="normal" text-decoration="none" transform="matrix(1 0 0 1 1246.23 2063)">B</text><path d="M1927.5 1846C1927.5 1820.87 1947.87 1800.5 1973 1800.5L2155 1800.5C2180.13 1800.5 2200.5 1820.87 2200.5 1846L2200.5 2141C2200.5 2166.13 2180.13 2186.5 2155 2186.5L1973 2186.5C1947.87 2186.5 1927.5 2166.13 1927.5 2141Z" stroke="#042433" stroke-width="6.875" stroke-linecap="butt" stroke-linejoin="miter" stroke-miterlimit="8" stroke-opacity="1" fill="#3B7D23" fill-rule="evenodd" fill-opacity="1"/><path d="M1977.5 1867.5 2151.42 1867.5" stroke="#000000" stroke-width="6.875" stroke-linecap="butt" stroke-linejoin="miter" stroke-miterlimit="8" stroke-opacity="1" fill="#84E291" fill-rule="evenodd" fill-opacity="1"/><path d="M1977.5 1919.5 2151.42 1919.5" stroke="#000000" stroke-width="6.875" stroke-linecap="butt" stroke-linejoin="miter" stroke-miterlimit="8" stroke-opacity="1" fill="#84E291" fill-rule="evenodd" fill-opacity="1"/><path d="M1977.5 1971.5 2151.42 1971.5" stroke="#000000" stroke-width="6.875" stroke-linecap="butt" stroke-linejoin="miter" stroke-miterlimit="8" stroke-opacity="1" fill="#84E291" fill-rule="evenodd" fill-opacity="1"/><rect x="1934" y="1993" width="260" height="100" fill="#3B7D23" fill-opacity="1"/><text fill="#000000" fill-opacity="1" font-family="Arial,Arial_MSFontService,sans-serif" font-style="normal" font-variant="normal" font-weight="700" font-stretch="normal" font-size="55" text-anchor="start" direction="ltr" writing-mode="lr-tb" unicode-bidi="normal" text-decoration="none" transform="matrix(1 0 0 1 2045.77 2063)">E</text><path d="M647.5 1968.88 688.75 1968.88 688.75 2010.13 647.5 2010.13ZM730 1968.88 771.25 1968.88 771.25 2010.13 730 2010.13ZM812.5 1968.88 853.75 1968.88 853.75 2010.13 812.5 2010.13ZM895 1968.88 936.25 1968.88 936.25 2010.13 895 2010.13ZM977.5 1968.88 994.774 1968.88 994.774 2010.13 977.5 2010.13ZM974.149 1927.63 1097.9 1989.5 974.149 2051.38Z" fill="#000000" fill-rule="nonzero" fill-opacity="1"/><path d="M2271.5 1972.87 2618.77 1972.88 2618.77 2014.13 2271.5 2014.12ZM2598.15 1931.63 2721.9 1993.5 2598.15 2055.38Z" fill="#000000" fill-rule="nonzero" fill-opacity="1"/><path d="M2748.5 1845.83C2748.5 1820.8 2768.8 1800.5 2793.83 1800.5L2975.17 1800.5C3000.2 1800.5 3020.5 1820.8 3020.5 1845.83L3020.5 2141.17C3020.5 2166.2 3000.2 2186.5 2975.17 2186.5L2793.83 2186.5C2768.8 2186.5 2748.5 2166.2 2748.5 2141.17Z" stroke="#042433" stroke-width="6.875" stroke-linecap="butt" stroke-linejoin="miter" stroke-miterlimit="8" stroke-opacity="1" fill="#0B76A0" fill-rule="evenodd" fill-opacity="1"/><path d="M2797.5 1867.5 2971.42 1867.5" stroke="#000000" stroke-width="6.875" stroke-linecap="butt" stroke-linejoin="miter" stroke-miterlimit="8" stroke-opacity="1" fill="#61CBF4" fill-rule="evenodd" fill-opacity="1"/><path d="M2797.5 1919.5 2971.42 1919.5" stroke="#000000" stroke-width="6.875" stroke-linecap="butt" stroke-linejoin="miter" stroke-miterlimit="8" stroke-opacity="1" fill="#61CBF4" fill-rule="evenodd" fill-opacity="1"/><path d="M2797.5 1971.5 2971.42 1971.5" stroke="#000000" stroke-width="6.875" stroke-linecap="butt" stroke-linejoin="miter" stroke-miterlimit="8" stroke-opacity="1" fill="#61CBF4" fill-rule="evenodd" fill-opacity="1"/><rect x="2755" y="1993" width="259" height="100" fill="#0B76A0" fill-opacity="1"/><text fill="#000000" fill-opacity="1" font-family="Arial,Arial_MSFontService,sans-serif" font-style="normal" font-variant="normal" font-weight="700" font-stretch="normal" font-size="55" text-anchor="start" direction="ltr" writing-mode="lr-tb" unicode-bidi="normal" text-decoration="none" transform="matrix(1 0 0 1 2867.65 2063)">F</text><g><g><g><path d="M830 226.25C807.313 226.25 788.75 207.687 788.75 185 788.75 162.312 807.313 143.75 830 143.75 852.688 143.75 871.25 162.312 871.25 185 871.25 207.687 852.688 226.25 830 226.25ZM922.813 159.219C920.75 151.656 917.656 144.437 913.875 137.906L922.469 112.125 902.875 92.5312 877.094 101.125C870.219 97.3437 863 94.2499 855.438 92.1874L843.75 68.1249 816.25 68.1249 804.219 92.1874C796.656 94.2499 789.438 97.3437 782.906 101.125L757.125 92.5312 737.531 112.125 746.125 137.906C742.344 144.781 739.25 152 737.188 159.562L713.125 171.25 713.125 198.75 737.188 210.781C739.25 218.344 742.344 225.562 746.125 232.094L737.531 257.875 757.125 277.469 782.906 268.875C789.781 272.656 797 275.75 804.563 277.812L816.594 301.875 844.094 301.875 856.125 277.812C863.688 275.75 870.906 272.656 877.438 268.875L903.219 277.469 922.813 257.875 914.219 232.094C918 225.219 921.094 218 923.156 210.437L947.219 198.406 947.219 170.906 922.813 159.219Z" fill="#000000" fill-rule="nonzero" fill-opacity="1"/></g></g></g><text fill="#000000" fill-opacity="1" font-family="Arial,Arial_MSFontService,sans-serif" font-style="normal" font-variant="normal" font-weight="700" font-stretch="normal" font-size="55" text-anchor="start" direction="ltr" writing-mode="lr-tb" unicode-bidi="normal" text-decoration="none" transform="matrix(1 0 0 1 747.493 393)">Tool V</text><g><g><g><path d="M1666 226.25C1643.31 226.25 1624.75 207.687 1624.75 185 1624.75 162.312 1643.31 143.75 1666 143.75 1688.69 143.75 1707.25 162.312 1707.25 185 1707.25 207.687 1688.69 226.25 1666 226.25ZM1758.81 159.219C1756.75 151.656 1753.66 144.437 1749.88 137.906L1758.47 112.125 1738.88 92.5312 1713.09 101.125C1706.22 97.3437 1699 94.2499 1691.44 92.1874L1679.75 68.1249 1652.25 68.1249 1640.22 92.1874C1632.66 94.2499 1625.44 97.3437 1618.91 101.125L1593.13 92.5312 1573.53 112.125 1582.13 137.906C1578.34 144.781 1575.25 152 1573.19 159.562L1549.13 171.25 1549.13 198.75 1573.19 210.781C1575.25 218.344 1578.34 225.562 1582.13 232.094L1573.53 257.875 1593.13 277.469 1618.91 268.875C1625.78 272.656 1633 275.75 1640.56 277.812L1652.59 301.875 1680.09 301.875 1692.13 277.812C1699.69 275.75 1706.91 272.656 1713.44 268.875L1739.22 277.469 1758.81 257.875 1750.22 232.094C1754 225.219 1757.09 218 1759.16 210.437L1783.22 198.406 1783.22 170.906 1758.81 159.219Z" fill="#61CBF4" fill-rule="nonzero" fill-opacity="1"/></g></g></g><text fill="#000000" fill-opacity="1" font-family="Arial,Arial_MSFontService,sans-serif" font-style="normal" font-variant="normal" font-weight="700" font-stretch="normal" font-size="55" text-anchor="start" direction="ltr" writing-mode="lr-tb" unicode-bidi="normal" text-decoration="none" transform="matrix(1 0 0 1 1576.08 393)">Tool </text><text fill="#000000" fill-opacity="1" font-family="Arial,Arial_MSFontService,sans-serif" font-style="normal" font-variant="normal" font-weight="700" font-stretch="normal" font-size="55" text-anchor="start" direction="ltr" writing-mode="lr-tb" unicode-bidi="normal" text-decoration="none" transform="matrix(1 0 0 1 1704.34 393)">W</text><g><g><g><path d="M830 976.25C807.313 976.25 788.75 957.688 788.75 935 788.75 912.312 807.313 893.75 830 893.75 852.688 893.75 871.25 912.312 871.25 935 871.25 957.688 852.688 976.25 830 976.25ZM922.813 909.219C920.75 901.656 917.656 894.438 913.875 887.906L922.469 862.125 902.875 842.531 877.094 851.125C870.219 847.344 863 844.25 855.438 842.188L843.75 818.125 816.25 818.125 804.219 842.188C796.656 844.25 789.438 847.344 782.906 851.125L757.125 842.531 737.531 862.125 746.125 887.906C742.344 894.781 739.25 902 737.188 909.562L713.125 921.25 713.125 948.75 737.188 960.781C739.25 968.344 742.344 975.562 746.125 982.094L737.531 1007.88 757.125 1027.47 782.906 1018.88C789.781 1022.66 797 1025.75 804.563 1027.81L816.594 1051.88 844.094 1051.88 856.125 1027.81C863.688 1025.75 870.906 1022.66 877.438 1018.88L903.219 1027.47 922.813 1007.88 914.219 982.094C918 975.219 921.094 968 923.156 960.438L947.219 948.406 947.219 920.906 922.813 909.219Z" fill="#000000" fill-rule="nonzero" fill-opacity="1"/></g></g></g><text fill="#000000" fill-opacity="1" font-family="Arial,Arial_MSFontService,sans-serif" font-style="normal" font-variant="normal" font-weight="700" font-stretch="normal" font-size="55" text-anchor="start" direction="ltr" writing-mode="lr-tb" unicode-bidi="normal" text-decoration="none" transform="matrix(1 0 0 1 747.493 1143)">Tool </text><text fill="#000000" fill-opacity="1" font-family="Arial,Arial_MSFontService,sans-serif" font-style="normal" font-variant="normal" font-weight="700" font-stretch="normal" font-size="55" text-anchor="start" direction="ltr" writing-mode="lr-tb" unicode-bidi="normal" text-decoration="none" transform="matrix(1 0 0 1 875.758 1143)">V</text><g><g><g><path d="M1666 976.25C1643.31 976.25 1624.75 957.688 1624.75 935 1624.75 912.312 1643.31 893.75 1666 893.75 1688.69 893.75 1707.25 912.312 1707.25 935 1707.25 957.688 1688.69 976.25 1666 976.25ZM1758.81 909.219C1756.75 901.656 1753.66 894.438 1749.88 887.906L1758.47 862.125 1738.88 842.531 1713.09 851.125C1706.22 847.344 1699 844.25 1691.44 842.188L1679.75 818.125 1652.25 818.125 1640.22 842.188C1632.66 844.25 1625.44 847.344 1618.91 851.125L1593.13 842.531 1573.53 862.125 1582.13 887.906C1578.34 894.781 1575.25 902 1573.19 909.562L1549.13 921.25 1549.13 948.75 1573.19 960.781C1575.25 968.344 1578.34 975.562 1582.13 982.094L1573.53 1007.88 1593.13 1027.47 1618.91 1018.88C1625.78 1022.66 1633 1025.75 1640.56 1027.81L1652.59 1051.88 1680.09 1051.88 1692.13 1027.81C1699.69 1025.75 1706.91 1022.66 1713.44 1018.88L1739.22 1027.47 1758.81 1007.88 1750.22 982.094C1754 975.219 1757.09 968 1759.16 960.438L1783.22 948.406 1783.22 920.906 1758.81 909.219Z" fill="#61CBF4" fill-rule="nonzero" fill-opacity="1"/></g></g></g><text fill="#000000" fill-opacity="1" font-family="Arial,Arial_MSFontService,sans-serif" font-style="normal" font-variant="normal" font-weight="700" font-stretch="normal" font-size="55" text-anchor="start" direction="ltr" writing-mode="lr-tb" unicode-bidi="normal" text-decoration="none" transform="matrix(1 0 0 1 1576.08 1143)">Tool </text><text fill="#000000" fill-opacity="1" font-family="Arial,Arial_MSFontService,sans-serif" font-style="normal" font-variant="normal" font-weight="700" font-stretch="normal" font-size="55" text-anchor="start" direction="ltr" writing-mode="lr-tb" unicode-bidi="normal" text-decoration="none" transform="matrix(1 0 0 1 1704.34 1143)">W</text><g><g><g><path d="M830 1739.25C807.313 1739.25 788.75 1720.69 788.75 1698 788.75 1675.31 807.313 1656.75 830 1656.75 852.688 1656.75 871.25 1675.31 871.25 1698 871.25 1720.69 852.688 1739.25 830 1739.25ZM922.813 1672.22C920.75 1664.66 917.656 1657.44 913.875 1650.91L922.469 1625.13 902.875 1605.53 877.094 1614.13C870.219 1610.34 863 1607.25 855.438 1605.19L843.75 1581.13 816.25 1581.13 804.219 1605.19C796.656 1607.25 789.438 1610.34 782.906 1614.13L757.125 1605.53 737.531 1625.13 746.125 1650.91C742.344 1657.78 739.25 1665 737.188 1672.56L713.125 1684.25 713.125 1711.75 737.188 1723.78C739.25 1731.34 742.344 1738.56 746.125 1745.09L737.531 1770.88 757.125 1790.47 782.906 1781.88C789.781 1785.66 797 1788.75 804.563 1790.81L816.594 1814.88 844.094 1814.88 856.125 1790.81C863.688 1788.75 870.906 1785.66 877.438 1781.88L903.219 1790.47 922.813 1770.88 914.219 1745.09C918 1738.22 921.094 1731 923.156 1723.44L947.219 1711.41 947.219 1683.91 922.813 1672.22Z" fill="#000000" fill-rule="nonzero" fill-opacity="1"/></g></g></g><text fill="#000000" fill-opacity="1" font-family="Arial,Arial_MSFontService,sans-serif" font-style="normal" font-variant="normal" font-weight="700" font-stretch="normal" font-size="55" text-anchor="start" direction="ltr" writing-mode="lr-tb" unicode-bidi="normal" text-decoration="none" transform="matrix(1 0 0 1 747.493 1907)">Tool </text><text fill="#000000" fill-opacity="1" font-family="Arial,Arial_MSFontService,sans-serif" font-style="normal" font-variant="normal" font-weight="700" font-stretch="normal" font-size="55" text-anchor="start" direction="ltr" writing-mode="lr-tb" unicode-bidi="normal" text-decoration="none" transform="matrix(1 0 0 1 875.757 1907)">V</text><g><g><g><path d="M1666 1739.25C1643.31 1739.25 1624.75 1720.69 1624.75 1698 1624.75 1675.31 1643.31 1656.75 1666 1656.75 1688.69 1656.75 1707.25 1675.31 1707.25 1698 1707.25 1720.69 1688.69 1739.25 1666 1739.25ZM1758.81 1672.22C1756.75 1664.66 1753.66 1657.44 1749.88 1650.91L1758.47 1625.13 1738.88 1605.53 1713.09 1614.13C1706.22 1610.34 1699 1607.25 1691.44 1605.19L1679.75 1581.13 1652.25 1581.13 1640.22 1605.19C1632.66 1607.25 1625.44 1610.34 1618.91 1614.13L1593.13 1605.53 1573.53 1625.13 1582.13 1650.91C1578.34 1657.78 1575.25 1665 1573.19 1672.56L1549.13 1684.25 1549.13 1711.75 1573.19 1723.78C1575.25 1731.34 1578.34 1738.56 1582.13 1745.09L1573.53 1770.88 1593.13 1790.47 1618.91 1781.88C1625.78 1785.66 1633 1788.75 1640.56 1790.81L1652.59 1814.88 1680.09 1814.88 1692.13 1790.81C1699.69 1788.75 1706.91 1785.66 1713.44 1781.88L1739.22 1790.47 1758.81 1770.88 1750.22 1745.09C1754 1738.22 1757.09 1731 1759.16 1723.44L1783.22 1711.41 1783.22 1683.91 1758.81 1672.22Z" fill="#8ED973" fill-rule="nonzero" fill-opacity="1"/></g></g></g><text fill="#000000" fill-opacity="1" font-family="Arial,Arial_MSFontService,sans-serif" font-style="normal" font-variant="normal" font-weight="700" font-stretch="normal" font-size="55" text-anchor="start" direction="ltr" writing-mode="lr-tb" unicode-bidi="normal" text-decoration="none" transform="matrix(1 0 0 1 1583.81 1907)">Tool </text><text fill="#000000" fill-opacity="1" font-family="Arial,Arial_MSFontService,sans-serif" font-style="normal" font-variant="normal" font-weight="700" font-stretch="normal" font-size="55" text-anchor="start" direction="ltr" writing-mode="lr-tb" unicode-bidi="normal" text-decoration="none" transform="matrix(1 0 0 1 1712.08 1907)">X</text><g><g><g><path d="M2465 961.25C2442.31 961.25 2423.75 942.687 2423.75 920 2423.75 897.312 2442.31 878.75 2465 878.75 2487.69 878.75 2506.25 897.312 2506.25 920 2506.25 942.687 2487.69 961.25 2465 961.25ZM2557.81 894.219C2555.75 886.656 2552.66 879.437 2548.88 872.906L2557.47 847.125 2537.88 827.531 2512.09 836.125C2505.22 832.344 2498 829.25 2490.44 827.187L2478.75 803.125 2451.25 803.125 2439.22 827.187C2431.66 829.25 2424.44 832.344 2417.91 836.125L2392.12 827.531 2372.53 847.125 2381.12 872.906C2377.34 879.781 2374.25 887 2372.19 894.562L2348.12 906.25 2348.12 933.75 2372.19 945.781C2374.25 953.344 2377.34 960.562 2381.12 967.094L2372.53 992.875 2392.12 1012.47 2417.91 1003.87C2424.78 1007.66 2432 1010.75 2439.56 1012.81L2451.59 1036.87 2479.09 1036.87 2491.12 1012.81C2498.69 1010.75 2505.91 1007.66 2512.44 1003.87L2538.22 1012.47 2557.81 992.875 2549.22 967.094C2553 960.219 2556.09 953 2558.16 945.437L2582.22 933.406 2582.22 905.906 2557.81 894.219Z" fill="#8ED973" fill-rule="nonzero" fill-opacity="1"/></g></g></g><text fill="#000000" fill-opacity="1" font-family="Arial,Arial_MSFontService,sans-serif" font-style="normal" font-variant="normal" font-weight="700" font-stretch="normal" font-size="55" text-anchor="start" direction="ltr" writing-mode="lr-tb" unicode-bidi="normal" text-decoration="none" transform="matrix(1 0 0 1 2382.85 1129)">Tool </text><text fill="#000000" fill-opacity="1" font-family="Arial,Arial_MSFontService,sans-serif" font-style="normal" font-variant="normal" font-weight="700" font-stretch="normal" font-size="55" text-anchor="start" direction="ltr" writing-mode="lr-tb" unicode-bidi="normal" text-decoration="none" transform="matrix(1 0 0 1 2511.11 1129)">X</text><g><g><g><path d="M2474 1739.25C2451.31 1739.25 2432.75 1720.69 2432.75 1698 2432.75 1675.31 2451.31 1656.75 2474 1656.75 2496.69 1656.75 2515.25 1675.31 2515.25 1698 2515.25 1720.69 2496.69 1739.25 2474 1739.25ZM2566.81 1672.22C2564.75 1664.66 2561.66 1657.44 2557.88 1650.91L2566.47 1625.13 2546.88 1605.53 2521.09 1614.13C2514.22 1610.34 2507 1607.25 2499.44 1605.19L2487.75 1581.13 2460.25 1581.13 2448.22 1605.19C2440.66 1607.25 2433.44 1610.34 2426.91 1614.13L2401.12 1605.53 2381.53 1625.13 2390.12 1650.91C2386.34 1657.78 2383.25 1665 2381.19 1672.56L2357.12 1684.25 2357.12 1711.75 2381.19 1723.78C2383.25 1731.34 2386.34 1738.56 2390.12 1745.09L2381.53 1770.88 2401.12 1790.47 2426.91 1781.88C2433.78 1785.66 2441 1788.75 2448.56 1790.81L2460.59 1814.88 2488.09 1814.88 2500.12 1790.81C2507.69 1788.75 2514.91 1785.66 2521.44 1781.88L2547.22 1790.47 2566.81 1770.88 2558.22 1745.09C2562 1738.22 2565.09 1731 2567.16 1723.44L2591.22 1711.41 2591.22 1683.91 2566.81 1672.22Z" fill="#61CBF4" fill-rule="nonzero" fill-opacity="1"/></g></g></g><text fill="#000000" fill-opacity="1" font-family="Arial,Arial_MSFontService,sans-serif" font-style="normal" font-variant="normal" font-weight="700" font-stretch="normal" font-size="55" text-anchor="start" direction="ltr" writing-mode="lr-tb" unicode-bidi="normal" text-decoration="none" transform="matrix(1 0 0 1 2383.61 1907)">Tool </text><text fill="#000000" fill-opacity="1" font-family="Arial,Arial_MSFontService,sans-serif" font-style="normal" font-variant="normal" font-weight="700" font-stretch="normal" font-size="55" text-anchor="start" direction="ltr" writing-mode="lr-tb" unicode-bidi="normal" text-decoration="none" transform="matrix(1 0 0 1 2511.87 1907)">W</text></g></g></svg>